:SAMPLES-PER-SECOND 30
:FULLY-SPECIFIED
:DEGREES
46
root  12.5037 39.6674 -7.10284 89.3046 -86.5054 -95.2633
RightUpLeg  -1.19666 -9.93167 1.50799
RightLeg  17.7486 -10.514 3.17771
RightFoot  -10.814 -0.0618121 -2.54926
RightToes  0.00048216 0.542163 -0.142577
Spine  6.81075 0.0728696 13.5132
Spine1  12.7617 2.3159 -2.88967
HEad  -3.65655 1.52085 -3.06384
LeftShoulder1  7.26096 -11.7387 -41.3044
LeftArm  -20.579 16.0234 -29.3267
LeftForeArm  52.1027 -62.017 -16.1047
LeftHand  -0.25398 0.0180481 5.50724
RightShoulder  4.10264 7.6545 30.8156
RightArm  -6.26442 13.2246 34.6916
RightForeArm  -4.78434 36.0554 8.44884
RightHand  -1.8696 4.38642 -22.2034
LeftUpLeg  -20.0653 7.70318 5.22918
LeftLeg  48.6361 3.42437 4.59617
LeftFoot  -2.10501 0.278751 -3.28672
LeftToes  1.06246e-005 4.65855e-005 -8.18503e-006
47
root  11.441 39.7449 -7.16258 103.939 -86.625 -109.879
RightUpLeg  0.926953 -9.64375 1.13196
RightLeg  16.8867 -9.91853 3.33462
RightFoot  -11.6205 -0.086128 -3.13849
RightToes  0.00048216 0.542163 -0.142577
Spine  6.23659 0.676205 13.6457
Spine1  12.9973 3.0778 -4.06257
HEad  -3.88645 1.22187 -3.16494
LeftShoulder1  7.27514 -11.7247 -41.4323
LeftArm  -19.9297 16.142 -29.8292
LeftForeArm  51.0563 -59.9038 -14.6642
LeftHand  -0.25398 0.0180481 5.50724
RightShoulder  4.10345 7.78265 30.3997
RightArm  0.977646 15.3809 33.6744
RightForeArm  -10.6946 40.5526 10.2193
RightHand  -2.54855 6.51982 -24.9527
LeftUpLeg  -20.8516 9.58104 4.67319
LeftLeg  39.5713 3.12979 3.13571
LeftFoot  -1.06443 0.372979 -4.06976
LeftToes  1.06246e-005 4.65855e-005 -8.18503e-006
48
root  10.3962 39.7528 -7.1909 115.045 -86.1868 -121.021
RightUpLeg  3.01072 -9.4813 1.05777
RightLeg  16.2651 -9.23084 3.46112
RightFoot  -12.5828 -0.11865 -3.15358
RightToes  0.00048216 0.542163 -0.142577
Spine  5.57061 1.10861 13.8235
Spine1  13.5647 3.54576 -4.75363
HEad  -4.21902 1.14369 -3.27997
LeftShoulder1  7.22368 -11.6228 -41.4145
LeftArm  -19.3775 16.3241 -30.5808
LeftForeArm  49.4805 -56.0256 -12.4511
LeftHand  -0.25398 0.0180481 5.50724
RightShoulder  4.03666 7.80162 29.7379
RightArm  9.05679 19.1567 32.0858
RightForeArm  -10.2352 45.1717 11.9367
RightHand  -2.22446 5.65517 -23.3139
LeftUpLeg  -20.7886 12.0939 4.23347
LeftLeg  29.2428 2.66867 2.02401
LeftFoot  0.434538 0.498172 -4.85531
LeftToes  1.06246e-005 4.65855e-005 -8.18503e-006
49
root  9.36204 39.7253 -7.19354 123.013 -85.4621 -129.186
RightUpLeg  5.31562 -9.36957 1.00914
RightLeg  15.5398 -8.37131 3.62956
RightFoot  -13.5823 -0.144973 -2.71253
RightToes  0.00048216 0.542163 -0.142577
Spine  5.1154 1.38567 14.1105
Spine1  14.326 3.951 -5.4977
HEad  -4.77463 1.16454 -3.28304
LeftShoulder1  7.13381 -11.5173 -41.1681
LeftArm  -18.6181 16.5698 -31.3855
LeftForeArm  47.3641 -50.5542 -10.0196
LeftHand  -0.25398 0.0180481 5.50724
RightShoulder  3.93593 7.88272 28.5756
RightArm  12.2645 23.1881 30.9457
RightForeArm  -4.90255 51.2717 14.4546
RightHand  -1.32846 2.49872 -19.6901
LeftUpLeg  -19.7598 14.8152 3.87614
LeftLeg  17.9698 2.65212 0.976453
LeftFoot  1.89279 0.60904 -5.35279
LeftToes  1.06246e-005 4.65855e-005 -8.18503e-006
50
root  8.31179 39.6795 -7.17756 130.382 -84.6345 -136.897
RightUpLeg  7.72208 -9.47495 0.734561
RightLeg  14.9214 -7.13951 3.73451
RightFoot  -14.4437 -0.167378 -2.55534
RightToes  0.00048216 0.542163 -0.142577
Spine  5.08193 1.60508 14.4577
Spine1  14.9967 4.54333 -6.61278
HEad  -5.38947 1.02276 -3.10383
LeftShoulder1  7.08965 -11.5105 -40.9125
LeftArm  -17.418 16.9959 -31.8106
LeftForeArm  44.9454 -44.0951 -7.81267
LeftHand  -0.25398 0.0180481 5.50724
RightShoulder  3.83116 7.96626 27.3736
RightArm  7.72514 26.4045 30.8203
RightForeArm  2.53239 59.1845 19.1329
RightHand  -0.891617 0.233327 -18.4448
LeftUpLeg  -17.4781 13.3234 5.24568
LeftLeg  6.22031 7.51644 -1.62883
LeftFoot  3.51804 0.657352 -5.20226
LeftToes  1.06246e-005 4.65855e-005 -8.18503e-006
51
root  7.18583 39.5348 -7.12453 134.871 -83.6706 -141.73
RightUpLeg  9.79699 -10.1229 0.34374
RightLeg  15.3507 -5.4427 3.60938
RightFoot  -15.7461 -0.203605 -2.53523
RightToes  0.00048216 0.542163 -0.142577
Spine  5.23187 1.83791 14.9774
Spine1  15.1607 5.15982 -7.65194
HEad  -5.59957 0.639776 -2.75992
LeftShoulder1  7.11389 -11.5695 -40.8899
LeftArm  -16.0259 17.8116 -31.7409
LeftForeArm  42.6197 -37.3621 -5.98474
LeftHand  -0.25398 0.0180481 5.50724
RightShoulder  3.70496 7.76778 26.8262
RightArm  -2.31958 29.2485 32.2465
RightForeArm  14.6596 67.8726 28.0204
RightHand  -0.79887 -0.544226 -19.0089
LeftUpLeg  -15.1083 6.63545 8.48261
LeftLeg  -3.23088 17.1871 -5.70523
LeftFoot  3.40312 0.646262 -5.18924
LeftToes  1.06246e-005 4.65855e-005 -8.18503e-006
52
root  5.96823 39.2871 -7.03007 135.071 -82.951 -142.055
RightUpLeg  11.4552 -11.4071 -0.196828
RightLeg  16.7082 -3.52411 3.30294
RightFoot  -17.6439 -0.215908 -1.77899
RightToes  0.00048216 0.542163 -0.142577
Spine  5.17644 2.03146 15.5202
Spine1  14.8265 5.56392 -8.39068
HEad  -5.22089 -0.0597133 -2.18737
LeftShoulder1  7.13951 -11.5753 -41.0326
LeftArm  -14.6632 18.9785 -31.4508
LeftForeArm  40.3247 -30.6846 -4.46217
LeftHand  -0.25398 0.0180481 5.50724
RightShoulder  3.54918 7.30822 26.7794
RightArm  -13.7387 32.2534 35.7973
RightForeArm  39.1436 75.7355 47.1096
RightHand  -0.605397 -1.70616 -18.7973
LeftUpLeg  -15.4084 6.97763 8.51657
LeftLeg  -5.06557 17.7446 -6.09237
LeftFoot  0.63203 0.64727 -6.14619
LeftToes  1.06246e-005 4.65855e-005 -8.18503e-006
53
root  4.71216 39.0795 -6.92149 134.113 -82.9551 -141.023
RightUpLeg  13.0974 -13.061 -1.21898
RightLeg  17.8234 -1.60658 2.8582
RightFoot  -19.0229 -0.142935 -0.204539
RightToes  0.00048216 0.542163 -0.142577
Spine  4.92143 2.18257 15.5274
Spine1  14.6011 5.97163 -9.18758
HEad  -4.64485 -1.30635 -1.3652
LeftShoulder1  7.13404 -11.5234 -41.1516
LeftArm  -13.4094 20.2641 -31.1652
LeftForeArm  37.6746 -24.2245 -3.31934
LeftHand  -0.25398 0.0180481 5.50724
RightShoulder  3.39346 6.93802 26.4389
RightArm  -23.6952 35.0833 40.4244
RightForeArm  85.1428 79.7093 88.9234
RightHand  -0.493029 -2.49786 -19.1993
LeftUpLeg  -15.538 6.54292 7.87438
LeftLeg  -4.56591 17.4602 -5.72458
LeftFoot  1.10603 0.519349 -4.9139
LeftToes  1.06246e-005 4.65855e-005 -8.18503e-006
54
root  3.38966 38.9167 -6.79807 135.259 -83.2069 -142.191
RightUpLeg  14.7552 -14.694 -2.68554
RightLeg  19.1397 0.524233 2.16017
RightFoot  -19.5018 -0.0189179 1.58745
RightToes  0.00048216 0.542163 -0.142577
Spine  4.43776 2.64566 14.9421
Spine1  14.7531 6.61168 -9.64873
HEad  -4.15507 -3.04429 -0.525458
LeftShoulder1  7.15486 -11.5316 -41.2568
LeftArm  -13.467 21.7689 -30.8858
LeftForeArm  35.5014 -18.3744 -3.03022
LeftHand  -0.25398 0.0180481 5.50724
RightShoulder  3.24469 6.76055 25.5161
RightArm  -30.6329 37.7653 43.2276
RightForeArm  117.974 78.0269 122.209
RightHand  -0.820903 -1.04889 -21.628
LeftUpLeg  -15.5689 6.09213 6.82045
LeftLeg  -2.53536 16.7801 -4.98755
LeftFoot  6.73885 0.0548065 -0.741505
LeftToes  1.06246e-005 4.65855e-005 -8.18503e-006
55
root  2.02133 38.8005 -6.67427 141.856 -83.5654 -148.96
RightUpLeg  16.0652 -15.2561 -4.48996
RightLeg  21.1796 1.93269 1.19209
RightFoot  -19.3278 0.147148 3.9665
RightToes  0.00048216 0.542163 -0.142577
Spine  3.66588 3.46096 13.0009
Spine1  15.0985 7.20649 -9.07446
HEad  -3.35055 -4.74199 0.178387
LeftShoulder1  7.21696 -11.6262 -41.3632
LeftArm  -15.0579 23.806 -30.6849
LeftForeArm  34.0725 -13.6713 -3.23055
LeftHand  -0.25398 0.0180481 5.50724
RightShoulder  3.0344 6.48989 24.2035
RightArm  -33.5956 40.9135 42.8839
RightForeArm  112.513 78.3382 117.315
RightHand  -1.18937 0.616852 -23.0623
LeftUpLeg  -16.1326 6.31684 5.54282
LeftLeg  1.27949 15.6411 -4.13105
LeftFoot  13.5011 -0.879298 3.66231
LeftToes  1.06246e-005 4.65855e-005 -8.18503e-006
56
root  0.705883 38.7864 -6.5486 154.448 -84.2181 -161.634
RightUpLeg  16.3251 -13.9001 -6.40487
RightLeg  24.2605 1.26204 0.320044
RightFoot  -18.1236 0.328023 7.7047
RightToes  0.00048216 0.542163 -0.142577
Spine  2.82663 4.14828 9.87295
Spine1  15.2283 7.53499 -8.27649
HEad  -1.85875 -6.11801 1.03863
LeftShoulder1  7.23119 -11.7016 -41.2297
LeftArm  -15.7564 26.0721 -30.5589
LeftForeArm  32.0778 -10.442 -3.12343
LeftHand  -0.25398 0.0180481 5.50724
RightShoulder  2.71568 5.92423 22.5542
RightArm  -32.7544 44.0326 41.3733
RightForeArm  75.2139 79.4362 76.3551
RightHand  -0.780881 -1.18743 -20.4496
LeftUpLeg  -16.6344 8.44344 3.30444
LeftLeg  5.24285 12.9369 -3.32307
LeftFoot  16.1639 -1.5394 5.91302
LeftToes  1.06246e-005 4.65855e-005 -8.18503e-006
